<svg width="14" height="14" viewBox="0 0 14 14" fill="none" xmlns="http://www.w3.org/2000/svg">
<mask id="path-1-inside-1_407_73" fill="white">
<path d="M10.0057 8.80503H9.37336L9.14923 8.58891C9.93368 7.67639 10.4059 6.49171 10.4059 5.20297C10.4059 2.32933 8.07662 0 5.20297 0C2.32933 0 0 2.32933 0 5.20297C0 8.07662 2.32933 10.4059 5.20297 10.4059C6.49171 10.4059 7.67639 9.93368 8.58891 9.14923L8.80503 9.37336V10.0057L12.8073 14L14 12.8073L10.0057 8.80503ZM5.20297 8.80503C3.20983 8.80503 1.60091 7.19611 1.60091 5.20297C1.60091 3.20983 3.20983 1.60091 5.20297 1.60091C7.19611 1.60091 8.80503 3.20983 8.80503 5.20297C8.80503 7.19611 7.19611 8.80503 5.20297 8.80503Z"/>
</mask>
<path d="M10.0057 8.80503H9.37336L9.14923 8.58891C9.93368 7.67639 10.4059 6.49171 10.4059 5.20297C10.4059 2.32933 8.07662 0 5.20297 0C2.32933 0 0 2.32933 0 5.20297C0 8.07662 2.32933 10.4059 5.20297 10.4059C6.49171 10.4059 7.67639 9.93368 8.58891 9.14923L8.80503 9.37336V10.0057L12.8073 14L14 12.8073L10.0057 8.80503ZM5.20297 8.80503C3.20983 8.80503 1.60091 7.19611 1.60091 5.20297C1.60091 3.20983 3.20983 1.60091 5.20297 1.60091C7.19611 1.60091 8.80503 3.20983 8.80503 5.20297C8.80503 7.19611 7.19611 8.80503 5.20297 8.80503Z" fill="#00C192"/>
<path d="M10.0057 8.80503L12.837 5.97944L11.6649 4.80503H10.0057V8.80503ZM9.37336 8.80503L6.59681 11.6844L7.75894 12.805H9.37336V8.80503ZM9.14923 8.58891L6.11596 5.98136L3.65334 8.84605L6.37268 11.4683L9.14923 8.58891ZM8.58891 9.14923L11.4683 6.37268L8.84605 3.65334L5.98136 6.11596L8.58891 9.14923ZM8.80503 9.37336H12.805V7.75894L11.6844 6.59681L8.80503 9.37336ZM8.80503 10.0057H4.80503V11.6649L5.97944 12.837L8.80503 10.0057ZM12.8073 14L9.98172 16.8313L12.8101 19.654L15.6357 16.8284L12.8073 14ZM14 12.8073L16.8284 15.6357L19.654 12.8101L16.8313 9.98172L14 12.8073ZM10.0057 4.80503H9.37336V12.805H10.0057V4.80503ZM12.1499 5.92566L11.9258 5.70953L6.37268 11.4683L6.59681 11.6844L12.1499 5.92566ZM12.1825 11.1965C13.566 9.58712 14.4059 7.48581 14.4059 5.20297H6.40595C6.40595 5.49761 6.3014 5.76565 6.11596 5.98136L12.1825 11.1965ZM14.4059 5.20297C14.4059 0.120192 10.2858 -4 5.20297 -4V4C5.86748 4 6.40595 4.53847 6.40595 5.20297H14.4059ZM5.20297 -4C0.120192 -4 -4 0.120192 -4 5.20297H4C4 4.53847 4.53847 4 5.20297 4V-4ZM-4 5.20297C-4 10.2858 0.120192 14.4059 5.20297 14.4059V6.40595C4.53847 6.40595 4 5.86748 4 5.20297H-4ZM5.20297 14.4059C7.48581 14.4059 9.58712 13.566 11.1965 12.1825L5.98136 6.11596C5.76565 6.3014 5.49761 6.40595 5.20297 6.40595V14.4059ZM5.70953 11.9258L5.92566 12.1499L11.6844 6.59681L11.4683 6.37268L5.70953 11.9258ZM4.80503 9.37336V10.0057H12.805V9.37336H4.80503ZM5.97944 12.837L9.98172 16.8313L15.6329 11.1687L11.6306 7.17446L5.97944 12.837ZM15.6357 16.8284L16.8284 15.6357L11.1716 9.97889L9.97889 11.1716L15.6357 16.8284ZM16.8313 9.98172L12.837 5.97944L7.17446 11.6306L11.1687 15.6329L16.8313 9.98172ZM5.20297 4.80503C5.41897 4.80503 5.60091 4.98697 5.60091 5.20297H-2.39909C-2.39909 9.40525 1.0007 12.805 5.20297 12.805V4.80503ZM5.60091 5.20297C5.60091 5.41897 5.41897 5.60091 5.20297 5.60091V-2.39909C1.0007 -2.39909 -2.39909 1.0007 -2.39909 5.20297H5.60091ZM5.20297 5.60091C4.98697 5.60091 4.80503 5.41897 4.80503 5.20297H12.805C12.805 1.0007 9.40525 -2.39909 5.20297 -2.39909V5.60091ZM4.80503 5.20297C4.80503 4.98697 4.98697 4.80503 5.20297 4.80503V12.805C9.40525 12.805 12.805 9.40525 12.805 5.20297H4.80503Z" fill="#00C192" mask="url(#path-1-inside-1_407_73)"/>
</svg>
